<?xml version="1.0" standalone="no"?>
<svg xmlns:xlink="http://www.w3.org/1999/xlink" id="wave" style="transform:rotate(0deg); transition: 0.3s" viewBox="0 0 1440 400" version="1.1" xmlns="http://www.w3.org/2000/svg"><defs><linearGradient id="sw-gradient-0" x1="0" x2="0" y1="1" y2="0"><stop stop-color="rgba(23.057, 11.759, 158.193, 1)" offset="0%"/><stop stop-color="rgba(18.824, 19.154, 116.57, 1)" offset="100%"/></linearGradient></defs><path style="transform:translate(0, 0px); opacity:1" fill="url(#sw-gradient-0)" d="M0,280L80,286.7C160,293,320,307,480,293.3C640,280,800,240,960,213.3C1120,187,1280,173,1440,140C1600,107,1760,53,1920,40C2080,27,2240,53,2400,60C2560,67,2720,53,2880,66.7C3040,80,3200,120,3360,126.7C3520,133,3680,107,3840,126.7C4000,147,4160,213,4320,200C4480,187,4640,93,4800,66.7C4960,40,5120,80,5280,126.7C5440,173,5600,227,5760,233.3C5920,240,6080,200,6240,173.3C6400,147,6560,133,6720,160C6880,187,7040,253,7200,266.7C7360,280,7520,240,7680,186.7C7840,133,8000,67,8160,53.3C8320,40,8480,80,8640,140C8800,200,8960,280,9120,320C9280,360,9440,360,9600,333.3C9760,307,9920,253,10080,200C10240,147,10400,93,10560,60C10720,27,10880,13,11040,46.7C11200,80,11360,160,11440,200L11520,240L11520,400L11440,400C11360,400,11200,400,11040,400C10880,400,10720,400,10560,400C10400,400,10240,400,10080,400C9920,400,9760,400,9600,400C9440,400,9280,400,9120,400C8960,400,8800,400,8640,400C8480,400,8320,400,8160,400C8000,400,7840,400,7680,400C7520,400,7360,400,7200,400C7040,400,6880,400,6720,400C6560,400,6400,400,6240,400C6080,400,5920,400,5760,400C5600,400,5440,400,5280,400C5120,400,4960,400,4800,400C4640,400,4480,400,4320,400C4160,400,4000,400,3840,400C3680,400,3520,400,3360,400C3200,400,3040,400,2880,400C2720,400,2560,400,2400,400C2240,400,2080,400,1920,400C1760,400,1600,400,1440,400C1280,400,1120,400,960,400C800,400,640,400,480,400C320,400,160,400,80,400L0,400Z"/></svg>